<svg xmlns="http://www.w3.org/2000/svg" width="480.82" height="480.82" viewBox="0 0 480.82 480.82"><path d="M461.93,146.83a241.24,241.24,0,1,0,18.89,93.58A239.57,239.57,0,0,0,461.93,146.83Z"/><path d="M240.41,399.88a158.7,158.7,0,1,1,62-12.5A158.53,158.53,0,0,1,240.41,399.88Z" style="fill:#f8d800"/><path d="M266.91,387c-57.75,11.16-119.64-15.76-151.28-65.13-58.09-88.89-6.38-209.34,98.29-228C318.51,74.71,409.12,169.44,385.82,273c-12.37,57.33-60.91,104.21-118.91,114Z" style="fill:none;stroke:#000;stroke-linecap:square;stroke-miterlimit:10;stroke-width:5px;stroke-dasharray:58.505828857421875,58.505828857421875"/><path d="M240.41,380.41a139.32,139.32,0,1,1,54.48-11A139,139,0,0,1,240.41,380.41Z"/><path d="M240.33,375.84a135,135,0,1,1,52.76-10.63A134.53,134.53,0,0,1,240.33,375.84Z" style="fill:#f8d800"/><path d="M338.44,99.68a4.11,4.11,0,0,0,.43,6.34s12.21,9.28,19.43,16.5S374.81,142,374.81,142a4.12,4.12,0,0,0,6.34.43L430.44,93.1a243.91,243.91,0,0,0-42.72-42.71Z" style="fill:#f8d800"/><path d="M479,210.74a5.06,5.06,0,0,0-2.24-.53H409.25a4.11,4.11,0,0,0-4.18,4.79s2.06,15.18,2.06,25.41-2.06,25.42-2.06,25.42a4.11,4.11,0,0,0,4.18,4.78h67.53a5.06,5.06,0,0,0,2.24-.53,245.43,245.43,0,0,0,0-59.34Z" style="fill:#f8d800"/><path d="M210.21,71.57A4.12,4.12,0,0,0,215,75.76s15.18-2.07,25.41-2.07,25.42,2.07,25.42,2.07a4.12,4.12,0,0,0,4.78-4.19V3.08a4.61,4.61,0,0,0-.16-1.23,244.82,244.82,0,0,0-60.08,0,5.06,5.06,0,0,0-.16,1.23Z" style="fill:#f8d800"/><path d="M381.15,338.44a4.11,4.11,0,0,0-6.34.43s-9.29,12.21-16.51,19.43-19.43,16.51-19.43,16.51a4.11,4.11,0,0,0-.43,6.34l49.28,49.29a243.51,243.51,0,0,0,42.72-42.72Z" style="fill:#f8d800"/><path d="M142.39,381.15a4.12,4.12,0,0,0-.43-6.34s-12.21-9.29-19.44-16.51S106,338.87,106,338.87a4.11,4.11,0,0,0-6.34-.43L50.39,387.72A243.91,243.91,0,0,0,93.1,430.44Z" style="fill:#f8d800"/><path d="M71.57,270.61a4.12,4.12,0,0,0,4.19-4.78s-2.07-15.19-2.07-25.42S75.76,215,75.76,215a4.12,4.12,0,0,0-4.19-4.79s-69.26.08-69.73.23a245.08,245.08,0,0,0,0,59.95C2.31,270.53,71.57,270.61,71.57,270.61Z" style="fill:#f8d800"/><path d="M99.68,142.39A4.12,4.12,0,0,0,106,142s9.28-12.21,16.5-19.44S142,106,142,106a4.12,4.12,0,0,0,.43-6.34L93.1,50.39A244.31,244.31,0,0,0,50.39,93.1Z" style="fill:#f8d800"/><path d="M270.61,413.12v-3.87a4.11,4.11,0,0,0-4.78-4.18s-15.19,2.06-25.42,2.06S215,405.07,215,405.07a4.11,4.11,0,0,0-4.79,4.18V479a246.1,246.1,0,0,0,60.4,0Z" style="fill:#f8d800"/><path d="M240.36,467a24.31,24.31,0,0,0-2.36-6.18q-1.69-3.19-7.44-8.42a41.1,41.1,0,0,1-6.2-6.62,9.83,9.83,0,0,1-1.74-5.66,8.06,8.06,0,0,1,8-8.09q5.67,0,9.33,7,0-8.42-3.72-11.9t-10.11-3.75l-.25-1.35h29l-.25,1.35q-6.48,0-10.26,3.73t-3.79,10.71c0,.27,0,.68,0,1.21q3.28-6.94,9.54-7a8.09,8.09,0,0,1,8.05,8.05,10.08,10.08,0,0,1-1.92,6,27,27,0,0,1-5,5.16Q241.71,459.13,240.36,467Z"/><path d="M59.85,240.52a34.4,34.4,0,0,0-8.36,3.38A160.24,160.24,0,0,0,37.25,254a53,53,0,0,1-7.76,5.13,13.29,13.29,0,0,1-6,1.42,9.32,9.32,0,0,1-6.78-2.7,9,9,0,0,1-2.76-6.7q0-7.53,9.18-10.6a12.71,12.71,0,0,1-6.94-4.14A9.92,9.92,0,0,1,14,230.09a9.1,9.1,0,0,1,2.74-6.71,8.82,8.82,0,0,1,6.4-2.72,17,17,0,0,1,6.7,1.48,47.27,47.27,0,0,1,9.58,6.34Q52.54,238.91,59.85,240.52Z"/><path d="M123.61,101.76l-21.93,21.93-.67-1.08a33.69,33.69,0,0,0,3.91-7.45,12.6,12.6,0,0,0-.35-6.81,16.53,16.53,0,0,0-4.39-7.41l-1.11-1.06a15.58,15.58,0,0,1,.88,8.27,11.72,11.72,0,0,1-3.21,6.36,10.1,10.1,0,0,1-14.4-.07,10.29,10.29,0,0,1-3.13-6.88,8,8,0,0,1,2.28-6.49A13.89,13.89,0,0,1,87,98.17q-4.5-1-6.44-3a9.63,9.63,0,0,1-2.94-7,9.81,9.81,0,0,1,3-7.15A10.12,10.12,0,0,1,87.8,78a9.18,9.18,0,0,1,7,2.76,11.48,11.48,0,0,1,3.06,6.62,15,15,0,0,1,2.81-5.56,8.2,8.2,0,0,1,6.65-2.45,10.25,10.25,0,0,1,6.8,3.13,10,10,0,0,1,3.12,7.3,9.58,9.58,0,0,1-2.89,7.1,12.58,12.58,0,0,1-5.59,3q-3.58,1-9.12-.58a23.12,23.12,0,0,0,7.72,5.23,12.31,12.31,0,0,0,6.9.57,25.12,25.12,0,0,0,8.27-4Z"/><path d="M80.53,401.4a154.07,154.07,0,0,0,4.3-28.14q2.69,0,12.38-1.32a123.7,123.7,0,0,0,15.78-3q-2.3,7.53-4.42,28.06Q90.29,398.53,80.53,401.4Z"/><path d="M240.28,14.49a24.31,24.31,0,0,0,2.36,6.18q1.7,3.18,7.44,8.42a41.1,41.1,0,0,1,6.2,6.62A9.83,9.83,0,0,1,258,41.37a8.06,8.06,0,0,1-8,8.09q-5.67,0-9.33-7,0,8.41,3.72,11.9t10.11,3.75l.25,1.35h-29l.25-1.35q6.48,0,10.26-3.73t3.79-10.72c0-.26,0-.67,0-1.2q-3.28,6.95-9.54,7a8.09,8.09,0,0,1-8.05-8.05,10.08,10.08,0,0,1,1.92-6,27,27,0,0,1,5-5.16Q238.94,22.36,240.28,14.49Z"/><path d="M421.52,240.49a34.73,34.73,0,0,0,8.35-3.38A163,163,0,0,0,444.12,227a52.29,52.29,0,0,1,7.75-5.12,13.33,13.33,0,0,1,6-1.43,9.35,9.35,0,0,1,6.79,2.71,9,9,0,0,1,2.76,6.69q0,7.55-9.18,10.61a12.77,12.77,0,0,1,6.93,4.13,10,10,0,0,1,2.28,6.29,9.1,9.1,0,0,1-2.74,6.72,8.82,8.82,0,0,1-6.4,2.72,17,17,0,0,1-6.69-1.48q-3.48-1.49-9.58-6.35Q428.83,242.09,421.52,240.49Z"/><path d="M357.27,380,379.2,358l.67,1.08a33.12,33.12,0,0,0-3.9,7.45,12.49,12.49,0,0,0,.34,6.81,16.53,16.53,0,0,0,4.39,7.41l1.11,1.06a15.58,15.58,0,0,1-.88-8.27,11.72,11.72,0,0,1,3.21-6.36,10.1,10.1,0,0,1,14.4.07,10.31,10.31,0,0,1,3.13,6.88,8,8,0,0,1-2.27,6.49,14,14,0,0,1-5.54,2.9q4.5,1,6.44,3a9.59,9.59,0,0,1,2.94,7,9.81,9.81,0,0,1-3,7.15,10.07,10.07,0,0,1-7.11,3.07,9.19,9.19,0,0,1-7-2.76A11.41,11.41,0,0,1,383,394.4a15.11,15.11,0,0,1-2.82,5.56,8.2,8.2,0,0,1-6.65,2.45,10.25,10.25,0,0,1-6.8-3.13,10,10,0,0,1-3.12-7.3,9.62,9.62,0,0,1,2.89-7.1,12.68,12.68,0,0,1,5.59-3q3.58-1,9.12.58a23,23,0,0,0-7.72-5.23,12.31,12.31,0,0,0-6.9-.57,25.12,25.12,0,0,0-8.27,4Z"/><path d="M400.59,79.85A155,155,0,0,0,396.3,108q-2.7,0-12.39,1.32a123.7,123.7,0,0,0-15.78,3q2.31-7.53,4.43-28.06Q390.83,82.72,400.59,79.85Z"/><path d="M235.44,218.8v1.72h-4.32v-1.79c0-.15-.06-.22-.19-.22H216.69a.2.2,0,0,0-.23.17v4.78a.19.19,0,0,0,.17.22H231a4.44,4.44,0,0,1,4.43,4.43v4.66a4.43,4.43,0,0,1-4.43,4.42H216.88a4.39,4.39,0,0,1-4.44-4.36v-1.67h4v1.78a.21.21,0,0,0,.16.23h14.31c.13,0,.19-.07.19-.22v-4.73c0-.15-.06-.22-.19-.22H216.86a4.41,4.41,0,0,1-4.42-4.4v-4.8a4.36,4.36,0,0,1,4.4-4.32H231a4.37,4.37,0,0,1,4.43,4.32Z"/><path d="M237.74,218.8h19v4.31h-7.48v14.37h-4.31V223.11h-7.18Z"/><path d="M263.44,218.8h11a4.4,4.4,0,0,1,4.42,4.37v14h-4.31V232.6H263.32v4.59H259v-14A4.4,4.4,0,0,1,263.44,218.8Zm-.12,9.77h11.21v-5.24a.19.19,0,0,0-.16-.22H263.54a.2.2,0,0,0-.22.16v5.3Z"/><path d="M301,223.24V227a4.44,4.44,0,0,1-4.4,4.41h-.77l5.46,4.9v1.13h-4.54l-6.55-6h-3.86v6h-4V218.8H296.6A4.44,4.44,0,0,1,301,223.24Zm-14.15,3.89h9.9c.15,0,.23-.06.23-.18v-3.62a.19.19,0,0,0-.17-.22h-10a.19.19,0,0,0-.22.16.06.06,0,0,0,0,.06V227C286.61,227.07,286.68,227.13,286.83,227.13Z"/><path d="M323.4,223.11v1.15h-4.31v-.94a.18.18,0,0,0-.16-.21H309a.2.2,0,0,0-.22.16v2.53c0,.12.08.18.22.18h9.78a4.39,4.39,0,0,1,4.38,4.35v2.52a4.37,4.37,0,0,1-4.38,4.34h-9.93a4.36,4.36,0,0,1-4.38-4.34v-1.12h4.31v1.2a.21.21,0,0,0,.17.24h10a.19.19,0,0,0,.22-.16v-2.53c0-.12-.07-.18-.22-.18h-10a4.36,4.36,0,0,1-4.42-4.27v-2.92a4.38,4.38,0,0,1,4.44-4.31H319a4.38,4.38,0,0,1,4.44,4.31Z"/><path d="M211.29,242.66h23V247h-9.2v18.68h-4.31V247h-9.49Z"/><path d="M255.27,251.63v3.59a4.43,4.43,0,0,1-4.4,4.4h-.49l5.47,4.9v1.13h-4.53l-6.55-6H240.9v6h-4.31V247.26h14.3a4.39,4.39,0,0,1,4.38,4.37Zm-14.15,3.68H251c.14,0,.22-.07.22-.19V251.5a.2.2,0,0,0-.17-.22h-10a.19.19,0,0,0-.22.16v3.68C240.9,255.24,241,255.31,241.12,255.31Z"/><path d="M263.15,247.26h11a4.41,4.41,0,0,1,4.43,4.37v14h-4.31v-4.59H263v4.59h-4.31v-14a4.41,4.41,0,0,1,4.43-4.37Zm-.12,9.48h11.22V251.5a.21.21,0,0,0-.17-.22H263.25a.21.21,0,0,0-.22.17v5.29Z"/><path d="M300.69,251.28H286.26a.21.21,0,0,0-.23.17v9.67a.19.19,0,0,0,.17.22.06.06,0,0,0,.06,0h14.43v4.31H286.4a4.38,4.38,0,0,1-4.39-4.37v-9.65a4.38,4.38,0,0,1,4.39-4.37h14.29Z"/><path d="M318.65,247.26h3.89v1l-7.22,8.16,7.51,8.16v1.07h-4.17l-6.81-7.18h-3.4v7.18h-4.31V247.26h4.31v7.18h3.4Z"/><path d="M342.66,247.26v4H330v2.88h9.48v4.31H330v2.87h12.64v4.31H326V247.26Z"/><path d="M365.09,251.63v3.59a4.44,4.44,0,0,1-4.4,4.4h-.78l5.46,4.9v1.13h-4.53l-6.55-6h-3.86v6h-4V247.26h14.31a4.4,4.4,0,0,1,4.38,4.37Zm-14.44,3.68h9.9c.15,0,.22-.07.22-.19V251.5a.19.19,0,0,0-.16-.22h-10a.19.19,0,0,0-.22.16.06.06,0,0,0,0,.06v3.62C350.43,255.24,350.5,255.31,350.65,255.31Z"/><path d="M165.19,329.42h0s12.54-65.8,14.34-75.23L113.9,214.56,190,204.93l17.41-74.66L240,199.63c7.47-.77,83.58-9.09,85.57-9.31l-.7-6.51,32.15,5.65-30.29,11.7-.63-5.91c-12.31,1.6-90.22,11.59-90.22,11.59l-26.35-56-14,60.23-61.36,7.75,52.93,32-11.58,60.76,46.92-40.36,54.45,30.12c-4.29-9.8-13.05-27.55-13.16-27.76l-.44-.87,1-1.58h.92c1,0,1.38.65,1.87,1.48.24.4,23.43,44.07,23.43,44.07l-67.26-37.22-58.12,50.13Z"/></svg>