<svg xmlns="http://www.w3.org/2000/svg" width="480.82" height="480.82" viewBox="0 0 480.82 480.82"><path d="M461.93,146.83a241.24,241.24,0,1,0,18.89,93.58A239.57,239.57,0,0,0,461.93,146.83Z"/><path d="M240.41,399.88a158.7,158.7,0,1,1,62-12.5A158.53,158.53,0,0,1,240.41,399.88Z" style="fill:#545454"/><path d="M240.41,398.67A157.49,157.49,0,1,1,302,386.27,157.29,157.29,0,0,1,240.41,398.67Z" style="fill:#232323"/><path d="M240.41,396.26A155.15,155.15,0,1,1,301.05,384,154.76,154.76,0,0,1,240.41,396.26Z" style="fill:#545454"/><path d="M240.41,395.05a153.93,153.93,0,1,1,60.17-12.12A153.67,153.67,0,0,1,240.41,395.05Z"/><path d="M240.32,390a149.07,149.07,0,1,1,58.28-11.74A148.81,148.81,0,0,1,240.32,390Z" style="fill:#545454"/><path d="M338.44,99.68a4.11,4.11,0,0,0,.43,6.34s12.21,9.28,19.43,16.5S374.81,142,374.81,142a4.12,4.12,0,0,0,6.34.43L430.44,93.1a243.91,243.91,0,0,0-42.72-42.71Z" style="fill:#545454"/><path d="M479,210.74a5.06,5.06,0,0,0-2.24-.53H409.25a4.11,4.11,0,0,0-4.18,4.79s2.06,15.18,2.06,25.41-2.06,25.42-2.06,25.42a4.11,4.11,0,0,0,4.18,4.78h67.53a5.06,5.06,0,0,0,2.24-.53,245.43,245.43,0,0,0,0-59.34Z" style="fill:#545454"/><path d="M210.21,71.57A4.12,4.12,0,0,0,215,75.76s15.18-2.07,25.41-2.07,25.42,2.07,25.42,2.07a4.12,4.12,0,0,0,4.78-4.19V3.08a4.61,4.61,0,0,0-.16-1.23,244.82,244.82,0,0,0-60.08,0,5.06,5.06,0,0,0-.16,1.23Z" style="fill:#545454"/><path d="M381.15,338.44a4.11,4.11,0,0,0-6.34.43s-9.29,12.21-16.51,19.43-19.43,16.51-19.43,16.51a4.11,4.11,0,0,0-.43,6.34l49.28,49.29a243.51,243.51,0,0,0,42.72-42.72Z" style="fill:#545454"/><path d="M142.39,381.15a4.12,4.12,0,0,0-.43-6.34s-12.21-9.29-19.44-16.51S106,338.87,106,338.87a4.11,4.11,0,0,0-6.34-.43L50.39,387.72A243.91,243.91,0,0,0,93.1,430.44Z" style="fill:#545454"/><path d="M71.57,270.61a4.12,4.12,0,0,0,4.19-4.78s-2.07-15.19-2.07-25.42S75.76,215,75.76,215a4.12,4.12,0,0,0-4.19-4.79s-69.26.08-69.73.23a245.08,245.08,0,0,0,0,59.95C2.31,270.53,71.57,270.61,71.57,270.61Z" style="fill:#545454"/><path d="M99.68,142.39A4.12,4.12,0,0,0,106,142s9.28-12.21,16.5-19.44S142,106,142,106a4.12,4.12,0,0,0,.43-6.34L93.1,50.39A244.31,244.31,0,0,0,50.39,93.1Z" style="fill:#545454"/><path d="M270.61,413.12v-3.87a4.11,4.11,0,0,0-4.78-4.18s-15.19,2.06-25.42,2.06S215,405.07,215,405.07a4.11,4.11,0,0,0-4.79,4.18V479a246.1,246.1,0,0,0,60.4,0Z" style="fill:#545454"/><path d="M240.36,467a24.31,24.31,0,0,0-2.36-6.18q-1.69-3.19-7.44-8.42a41.1,41.1,0,0,1-6.2-6.62,9.83,9.83,0,0,1-1.74-5.66,8.06,8.06,0,0,1,8-8.09q5.67,0,9.33,7,0-8.42-3.72-11.9t-10.11-3.75l-.25-1.35h29l-.25,1.35q-6.48,0-10.26,3.73t-3.79,10.71c0,.27,0,.68,0,1.21q3.28-6.94,9.54-7a8.09,8.09,0,0,1,8.05,8.05,10.08,10.08,0,0,1-1.92,6,27,27,0,0,1-5,5.16Q241.71,459.13,240.36,467Z"/><path d="M59.85,240.52a34.4,34.4,0,0,0-8.36,3.38A160.24,160.24,0,0,0,37.25,254a53,53,0,0,1-7.76,5.13,13.29,13.29,0,0,1-6,1.42,9.32,9.32,0,0,1-6.78-2.7,9,9,0,0,1-2.76-6.7q0-7.53,9.18-10.6a12.71,12.71,0,0,1-6.94-4.14A9.92,9.92,0,0,1,14,230.09a9.1,9.1,0,0,1,2.74-6.71,8.82,8.82,0,0,1,6.4-2.72,17,17,0,0,1,6.7,1.48,47.27,47.27,0,0,1,9.58,6.34Q52.54,238.91,59.85,240.52Z"/><path d="M123.61,101.76l-21.93,21.93-.67-1.08a33.69,33.69,0,0,0,3.91-7.45,12.6,12.6,0,0,0-.35-6.81,16.53,16.53,0,0,0-4.39-7.41l-1.11-1.06a15.58,15.58,0,0,1,.88,8.27,11.72,11.72,0,0,1-3.21,6.36,10.1,10.1,0,0,1-14.4-.07,10.29,10.29,0,0,1-3.13-6.88,8,8,0,0,1,2.28-6.49A13.89,13.89,0,0,1,87,98.17q-4.5-1-6.44-3a9.63,9.63,0,0,1-2.94-7,9.81,9.81,0,0,1,3-7.15A10.12,10.12,0,0,1,87.8,78a9.18,9.18,0,0,1,7,2.76,11.48,11.48,0,0,1,3.06,6.62,15,15,0,0,1,2.81-5.56,8.2,8.2,0,0,1,6.65-2.45,10.25,10.25,0,0,1,6.8,3.13,10,10,0,0,1,3.12,7.3,9.58,9.58,0,0,1-2.89,7.1,12.58,12.58,0,0,1-5.59,3q-3.58,1-9.12-.58a23.12,23.12,0,0,0,7.72,5.23,12.31,12.31,0,0,0,6.9.57,25.12,25.12,0,0,0,8.27-4Z"/><path d="M80.53,401.4a154.07,154.07,0,0,0,4.3-28.14q2.69,0,12.38-1.32a123.7,123.7,0,0,0,15.78-3q-2.3,7.53-4.42,28.06Q90.29,398.53,80.53,401.4Z"/><path d="M240.28,14.49a24.31,24.31,0,0,0,2.36,6.18q1.7,3.18,7.44,8.42a41.1,41.1,0,0,1,6.2,6.62A9.83,9.83,0,0,1,258,41.37a8.06,8.06,0,0,1-8,8.09q-5.67,0-9.33-7,0,8.41,3.72,11.9t10.11,3.75l.25,1.35h-29l.25-1.35q6.48,0,10.26-3.73t3.79-10.72c0-.26,0-.67,0-1.2q-3.28,6.95-9.54,7a8.09,8.09,0,0,1-8.05-8.05,10.08,10.08,0,0,1,1.92-6,27,27,0,0,1,5-5.16Q238.94,22.36,240.28,14.49Z"/><path d="M421.52,240.49a34.73,34.73,0,0,0,8.35-3.38A163,163,0,0,0,444.12,227a52.29,52.29,0,0,1,7.75-5.12,13.33,13.33,0,0,1,6-1.43,9.35,9.35,0,0,1,6.79,2.71,9,9,0,0,1,2.76,6.69q0,7.55-9.18,10.61a12.77,12.77,0,0,1,6.93,4.13,10,10,0,0,1,2.28,6.29,9.1,9.1,0,0,1-2.74,6.72,8.82,8.82,0,0,1-6.4,2.72,17,17,0,0,1-6.69-1.48q-3.48-1.49-9.58-6.35Q428.83,242.09,421.52,240.49Z"/><path d="M357.27,380,379.2,358l.67,1.08a33.12,33.12,0,0,0-3.9,7.45,12.49,12.49,0,0,0,.34,6.81,16.53,16.53,0,0,0,4.39,7.41l1.11,1.06a15.58,15.58,0,0,1-.88-8.27,11.72,11.72,0,0,1,3.21-6.36,10.1,10.1,0,0,1,14.4.07,10.31,10.31,0,0,1,3.13,6.88,8,8,0,0,1-2.27,6.49,14,14,0,0,1-5.54,2.9q4.5,1,6.44,3a9.59,9.59,0,0,1,2.94,7,9.81,9.81,0,0,1-3,7.15,10.07,10.07,0,0,1-7.11,3.07,9.19,9.19,0,0,1-7-2.76A11.41,11.41,0,0,1,383,394.4a15.11,15.11,0,0,1-2.82,5.56,8.2,8.2,0,0,1-6.65,2.45,10.25,10.25,0,0,1-6.8-3.13,10,10,0,0,1-3.12-7.3,9.62,9.62,0,0,1,2.89-7.1,12.68,12.68,0,0,1,5.59-3q3.58-1,9.12.58a23,23,0,0,0-7.72-5.23,12.31,12.31,0,0,0-6.9-.57,25.12,25.12,0,0,0-8.27,4Z"/><path d="M400.59,79.85A155,155,0,0,0,396.3,108q-2.7,0-12.39,1.32a123.7,123.7,0,0,0-15.78,3q2.31-7.53,4.43-28.06Q390.83,82.72,400.59,79.85Z"/><path d="M234.77,216.14v2h-4.92v-2c0-.17-.07-.26-.22-.26H213.39a.23.23,0,0,0-.25.19.09.09,0,0,0,0,.07v5.39a.22.22,0,0,0,.19.25h16.39a5,5,0,0,1,5.05,5v5.31a5,5,0,0,1-5.05,5.05H213.61a5,5,0,0,1-5.06-5v-1.91h4.59v2a.23.23,0,0,0,.18.26h16.31c.15,0,.22-.09.22-.26v-5.39c0-.17-.07-.25-.22-.25h-16a5,5,0,0,1-5-5v-5.47a5,5,0,0,1,5-4.91H229.7a5,5,0,0,1,5.06,4.91Z"/><path d="M237.39,216.14H259v4.92H250.5v16.38h-4.92V221.06h-8.19Z"/><path d="M266.69,216.14h12.52a5,5,0,0,1,5,5v16h-4.91v-5.25H266.56v5.25h-4.92v-16A5,5,0,0,1,266.69,216.14Zm-.13,11.14h12.78v-6a.22.22,0,0,0-.19-.25H266.81a.21.21,0,0,0-.25.18.08.08,0,0,0,0,.07Z"/><path d="M309.49,221.21v4.34a5,5,0,0,1-5,5h-.88l6.23,5.6v1.28h-5.17l-7.47-6.88h-4.4v6.88h-4.59v-21.3H304.5A5.07,5.07,0,0,1,309.49,221.21Zm-16.13,4.44h11.29c.17,0,.25-.07.25-.22V221.3a.21.21,0,0,0-.19-.24H293.36a.22.22,0,0,0-.26.18v4.19C293.1,225.58,293.19,225.65,293.36,225.65Z"/><path d="M335.05,221.06v1.31h-4.91V221.3a.22.22,0,0,0-.19-.24H318.59a.22.22,0,0,0-.25.18v2.88c0,.14.08.21.25.21h11.14a5,5,0,0,1,5,5v2.87a5,5,0,0,1-5,5H318.41a5,5,0,0,1-5-5v-1.27h4.92v1.37a.24.24,0,0,0,.19.27h11.35a.23.23,0,0,0,.26-.19v-2.88c0-.14-.09-.21-.26-.21H318.46a5,5,0,0,1-5-4.86v-3.33a5,5,0,0,1,5.07-4.92H330a5,5,0,0,1,5.07,4.92Z"/><path d="M207.24,243.34h26.22v4.92H223v21.3h-4.92v-21.3H207.24Z"/><path d="M257.38,253.58v4.08a5,5,0,0,1-5,5h-.55l6.23,5.59v1.29h-5.17l-7.46-6.88H241v6.88h-4.91v-21h16.31a5,5,0,0,1,5,5Zm-16.13,4.18h11.29c.17,0,.25-.07.25-.21v-4.13a.2.2,0,0,0-.19-.24.06.06,0,0,0-.06,0H241.25a.22.22,0,0,0-.26.18v4.19C241,257.69,241.08,257.76,241.25,257.76Z"/><path d="M266.36,248.59h12.52a5,5,0,0,1,5.05,5v16H279v-5.24H266.23v5.24h-4.92v-16a5,5,0,0,1,5.05-5Zm-.13,10.81H279v-6a.21.21,0,0,0-.19-.25.06.06,0,0,0-.06,0H266.48a.22.22,0,0,0-.25.18v6Z"/><path d="M309.16,253.18H292.7a.22.22,0,0,0-.25.18.09.09,0,0,0,0,.07v11a.23.23,0,0,0,.19.26h16.52v4.91H292.87a5,5,0,0,1-5-5v-11a5,5,0,0,1,5-5h16.29Z"/><path d="M329.63,248.59h4.44v1.14l-8.23,9.3,8.56,9.31v1.22h-4.76l-7.76-8.19H318v8.19H313.1v-21H318v8.19h3.87Z"/><path d="M357,248.59v4.59H342.59v3.27h10.82v4.92H342.59v3.28H357v4.91H338v-21Z"/><path d="M382.57,253.58v4.08a5,5,0,0,1-5,5h-.88l6.22,5.59v1.29h-5.17l-7.46-6.88h-4.41v6.88h-4.59v-21h16.31a5,5,0,0,1,5,5Zm-16.46,4.18h11.3c.16,0,.25-.07.25-.21v-4.13a.21.21,0,0,0-.19-.24.06.06,0,0,0-.06,0h-11.3a.22.22,0,0,0-.25.18v4.19C365.86,257.69,365.94,257.76,366.11,257.76Z"/><path d="M154.68,342.26h0L171,256.49,96.21,211.31l86.72-11c2.39-10.27,19.84-85.13,19.84-85.13L240,194.3c8.51-.88,95.28-10.37,97.54-10.62l-.79-7.42,36.65,6.43L338.88,196l-.72-6.74c-14,1.82-102.85,13.21-102.85,13.21l-30-63.82-16,68.67-70,8.83,60.36,36.45-13.21,69.27,53.49-46L282,310.24c-4.89-11.18-14.87-31.42-15-31.66l-.5-1,1.18-1.8h1.05c1.13,0,1.57.74,2.12,1.69.28.46,26.72,50.24,26.72,50.24l-76.68-42.43-66.26,57.15Z"/></svg>