<svg xmlns="http://www.w3.org/2000/svg" width="480.82" height="480.82" viewBox="0 0 480.82 480.82"><path d="M18.89,334A241.24,241.24,0,1,0,0,240.41,239.64,239.64,0,0,0,18.89,334Z"/><path d="M240.41,80.94a158.81,158.81,0,1,1-62,12.51A158.32,158.32,0,0,1,240.41,80.94Z" style="fill:#f8d800"/><path d="M213.92,93.82C271.66,82.66,333.55,109.58,365.2,159c58.09,88.88,6.37,209.33-98.29,228C162.31,406.11,71.71,311.39,95,207.79c12.36-57.33,60.9-104.21,118.91-114Z" style="fill:none;stroke:#000;stroke-linecap:square;stroke-miterlimit:10;stroke-width:5px;stroke-dasharray:58.505828857421875,58.505828857421875"/><path d="M240.41,100.41a139.39,139.39,0,1,1-54.47,11A139,139,0,0,1,240.41,100.41Z"/><path d="M240.5,105a135,135,0,1,1-52.77,10.63A134.78,134.78,0,0,1,240.5,105Z" style="fill:#f8d800"/><path d="M142.39,381.15a4.12,4.12,0,0,0-.43-6.34s-12.21-9.29-19.44-16.51S106,338.87,106,338.87a4.11,4.11,0,0,0-6.34-.43L50.39,387.72A243.91,243.91,0,0,0,93.1,430.44Z" style="fill:#f8d800"/><path d="M1.8,270.08a5.09,5.09,0,0,0,2.24.53H71.57a4.12,4.12,0,0,0,4.19-4.78s-2.07-15.19-2.07-25.42S75.76,215,75.76,215a4.12,4.12,0,0,0-4.19-4.79H4a5.09,5.09,0,0,0-2.24.53,245.43,245.43,0,0,0,0,59.34Z" style="fill:#f8d800"/><path d="M270.61,409.25a4.11,4.11,0,0,0-4.78-4.18s-15.19,2.06-25.42,2.06S215,405.07,215,405.07a4.11,4.11,0,0,0-4.79,4.18v68.5a5.06,5.06,0,0,0,.16,1.23,246.14,246.14,0,0,0,60.08,0,4.61,4.61,0,0,0,.16-1.23Z" style="fill:#f8d800"/><path d="M99.68,142.39A4.12,4.12,0,0,0,106,142s9.28-12.21,16.5-19.44S142,106,142,106a4.12,4.12,0,0,0,.43-6.34L93.1,50.39A244.31,244.31,0,0,0,50.39,93.1Z" style="fill:#f8d800"/><path d="M338.44,99.68a4.11,4.11,0,0,0,.43,6.34s12.21,9.28,19.43,16.5S374.81,142,374.81,142a4.12,4.12,0,0,0,6.34.43L430.44,93.1a243.91,243.91,0,0,0-42.72-42.71Z" style="fill:#f8d800"/><path d="M409.25,210.21a4.11,4.11,0,0,0-4.18,4.79s2.06,15.18,2.06,25.41-2.06,25.42-2.06,25.42a4.11,4.11,0,0,0,4.18,4.78s69.26-.08,69.73-.22a245.08,245.08,0,0,0,0-59.95C478.51,210.29,409.25,210.21,409.25,210.21Z" style="fill:#f8d800"/><path d="M381.15,338.44a4.11,4.11,0,0,0-6.34.43s-9.29,12.21-16.51,19.43-19.43,16.51-19.43,16.51a4.11,4.11,0,0,0-.43,6.34l49.28,49.29a243.51,243.51,0,0,0,42.72-42.72Z" style="fill:#f8d800"/><path d="M210.21,67.71v3.86A4.12,4.12,0,0,0,215,75.76s15.18-2.07,25.41-2.07,25.42,2.07,25.42,2.07a4.12,4.12,0,0,0,4.78-4.19V1.87a244.8,244.8,0,0,0-60.4,0Z" style="fill:#f8d800"/><path d="M240.47,13.83A23.9,23.9,0,0,0,242.82,20q1.71,3.18,7.45,8.41a42,42,0,0,1,6.2,6.62,10,10,0,0,1,1.73,5.67,8,8,0,0,1-8,8.08q-5.67,0-9.32-6.95,0,8.41,3.71,11.91c2.47,2.33,5.85,3.58,10.11,3.75l.26,1.35H226l.26-1.35q6.47,0,10.26-3.73t3.78-10.72c0-.27,0-.67,0-1.21q-3.3,7-9.55,6.95a8.09,8.09,0,0,1-8-8,10.08,10.08,0,0,1,1.92-6,27.1,27.1,0,0,1,5-5.16Q239.11,21.69,240.47,13.83Z"/><path d="M421,240.31a34.73,34.73,0,0,0,8.35-3.38,163,163,0,0,0,14.25-10.08,52.29,52.29,0,0,1,7.75-5.12,13.33,13.33,0,0,1,6-1.43,9.31,9.31,0,0,1,6.79,2.71,9,9,0,0,1,2.76,6.69q0,7.53-9.18,10.61a12.67,12.67,0,0,1,6.93,4.13,9.94,9.94,0,0,1,2.28,6.29,9.06,9.06,0,0,1-2.74,6.71,8.79,8.79,0,0,1-6.4,2.73,17.15,17.15,0,0,1-6.69-1.48q-3.48-1.49-9.58-6.35Q428.29,241.91,421,240.31Z"/><path d="M357.21,379.06l21.93-21.93.67,1.09a32.89,32.89,0,0,0-3.9,7.44,12.44,12.44,0,0,0,.35,6.82,16.61,16.61,0,0,0,4.38,7.41l1.11,1.06a15.6,15.6,0,0,1-.88-8.28,11.93,11.93,0,0,1,3.21-6.36,10.13,10.13,0,0,1,14.41.08,10.25,10.25,0,0,1,3.12,6.88,8.06,8.06,0,0,1-2.27,6.49,14.08,14.08,0,0,1-5.54,2.89c3,.69,5.15,1.69,6.44,3a9.89,9.89,0,0,1-.1,14.17,10.09,10.09,0,0,1-7.11,3.08,9.2,9.2,0,0,1-7-2.77,11.41,11.41,0,0,1-3-6.62q-1.37,4.11-2.82,5.56a8.24,8.24,0,0,1-6.65,2.46,10.37,10.37,0,0,1-6.8-3.13,10,10,0,0,1-3.11-7.31,9.61,9.61,0,0,1,2.88-7.1,12.76,12.76,0,0,1,5.6-3q3.58-1,9.11.59a23,23,0,0,0-7.72-5.24,12.49,12.49,0,0,0-6.9-.57,25.08,25.08,0,0,0-8.26,4Z"/><path d="M400.29,79.43A154.7,154.7,0,0,0,396,107.56q-2.7,0-12.39,1.32a124,124,0,0,0-15.78,3q2.31-7.51,4.43-28.06Q390.54,82.31,400.29,79.43Z"/><path d="M240.54,466.33a23.94,23.94,0,0,0-2.36-6.18q-1.69-3.18-7.44-8.41a42,42,0,0,1-6.2-6.62,9.87,9.87,0,0,1-1.73-5.67,8,8,0,0,1,8-8.08q5.67,0,9.33,6.95,0-8.42-3.71-11.91t-10.11-3.75l-.26-1.35h29l-.26,1.35c-4.32,0-7.73,1.25-10.26,3.73s-3.78,6.06-3.78,10.72c0,.27,0,.67,0,1.21q3.3-7,9.55-6.95a8.06,8.06,0,0,1,8,8,10.08,10.08,0,0,1-1.92,6,26.7,26.7,0,0,1-5,5.15Q241.9,458.48,240.54,466.33Z"/><path d="M59.31,240.33A34.42,34.42,0,0,0,51,243.72a161.78,161.78,0,0,0-14.24,10.07A52,52,0,0,1,29,258.91a13.3,13.3,0,0,1-6,1.43,9.29,9.29,0,0,1-6.78-2.71,9,9,0,0,1-2.76-6.69q0-7.53,9.18-10.61a12.63,12.63,0,0,1-6.93-4.13,9.9,9.9,0,0,1-2.29-6.29,9.08,9.08,0,0,1,2.74-6.71,8.79,8.79,0,0,1,6.4-2.73,17,17,0,0,1,6.7,1.49q3.46,1.47,9.58,6.34Q52,238.73,59.31,240.33Z"/><path d="M123.56,100.86l-21.93,21.93L101,121.7a33.48,33.48,0,0,0,3.91-7.45,12.5,12.5,0,0,0-.35-6.81,16.71,16.71,0,0,0-4.38-7.41L99,99a15.51,15.51,0,0,1,.88,8.28,11.85,11.85,0,0,1-3.2,6.36,10.13,10.13,0,0,1-14.41-.08,10.31,10.31,0,0,1-3.13-6.88,8.1,8.1,0,0,1,2.28-6.49A14,14,0,0,1,87,97.26c-3-.69-5.14-1.68-6.44-3a9.9,9.9,0,0,1,.11-14.17A10,10,0,0,1,87.74,77a9.17,9.17,0,0,1,7,2.77,11.44,11.44,0,0,1,3,6.62c.91-2.74,1.85-4.6,2.82-5.56a8.22,8.22,0,0,1,6.64-2.46,10.35,10.35,0,0,1,6.81,3.13,10.07,10.07,0,0,1,3.11,7.31,9.59,9.59,0,0,1-2.88,7.09,12.62,12.62,0,0,1-5.6,3q-3.58,1-9.12-.58a23.32,23.32,0,0,0,7.72,5.24,12.52,12.52,0,0,0,6.91.57,25.59,25.59,0,0,0,8.26-4Z"/><path d="M80.24,401a154.7,154.7,0,0,0,4.29-28.13q2.68,0,12.39-1.32a123.84,123.84,0,0,0,15.77-3q-2.3,7.51-4.42,28.06Q90,398.1,80.24,401Z"/><path d="M245.39,262V260.3h4.31v1.79c0,.15.06.23.19.23h14.25a.2.2,0,0,0,.22-.17v-4.79a.2.2,0,0,0-.17-.22H249.82a4.43,4.43,0,0,1-4.43-4.43v-4.65a4.43,4.43,0,0,1,4.43-4.43H264a4.41,4.41,0,0,1,4.44,4.37v1.67h-4v-1.79a.2.2,0,0,0-.16-.23H249.89c-.13,0-.19.08-.19.23v4.72c0,.15.06.23.19.23H264a4.41,4.41,0,0,1,4.43,4.4V262a4.36,4.36,0,0,1-4.4,4.31H249.83a4.38,4.38,0,0,1-4.44-4.31Z"/><path d="M243.09,262h-19v-4.31h7.48V243.34h4.31v14.38h7.19Z"/><path d="M217.38,262h-11a4.41,4.41,0,0,1-4.42-4.38v-14h4.31v4.6H217.5v-4.6h4.31v14A4.41,4.41,0,0,1,217.38,262Zm.12-9.78H206.29v5.24a.21.21,0,0,0,.17.23h10.82a.19.19,0,0,0,.22-.17.06.06,0,0,0,0-.06Z"/><path d="M179.84,257.58v-3.8a4.43,4.43,0,0,1,4.4-4.4H185l-5.46-4.91v-1.13h4.53l6.55,6h3.86v-6h4V262H184.22A4.45,4.45,0,0,1,179.84,257.58ZM194,253.69h-9.91c-.15,0-.22.06-.22.19v3.62a.2.2,0,0,0,.16.22h10a.21.21,0,0,0,.22-.17v-3.67C194.22,253.75,194.14,253.69,194,253.69Z"/><path d="M157.42,257.72v-1.15h4.31v.93a.21.21,0,0,0,.17.22h10a.19.19,0,0,0,.22-.17V255c0-.13-.07-.19-.22-.19h-9.77a4.37,4.37,0,0,1-4.38-4.35V248a4.37,4.37,0,0,1,4.38-4.35H172a4.36,4.36,0,0,1,4.37,4.35v1.11h-4.31v-1.2a.21.21,0,0,0-.17-.24H162a.21.21,0,0,0-.23.16v2.53c0,.13.08.19.23.19h10a4.34,4.34,0,0,1,4.41,4.26v2.93A4.38,4.38,0,0,1,172,262H161.87a4.39,4.39,0,0,1-4.45-4.31Z"/><path d="M269.54,238.17h-23v-4.31h9.2V215.17h4.31v18.69h9.49Z"/><path d="M225.55,229.19v-3.58a4.43,4.43,0,0,1,4.4-4.4h.49L225,216.3v-1.13h4.53l6.55,6h3.87v-6h4.31v18.4H229.93a4.42,4.42,0,0,1-4.38-4.38Zm14.15-3.67h-9.9c-.15,0-.22.06-.22.18v3.63a.18.18,0,0,0,.16.21.06.06,0,0,0,.06,0h9.9a.2.2,0,0,0,.23-.16V225.7C239.93,225.58,239.85,225.52,239.7,225.52Z"/><path d="M217.67,233.57h-11a4.41,4.41,0,0,1-4.43-4.38v-14h4.31v4.6h11.21v-4.6h4.31v14a4.41,4.41,0,0,1-4.43,4.38Zm.12-9.49H206.58v5.24a.19.19,0,0,0,.16.22.06.06,0,0,0,.06,0h10.77a.19.19,0,0,0,.22-.16v-5.3Z"/><path d="M180.13,229.54h14.44a.18.18,0,0,0,.22-.16.06.06,0,0,0,0-.06V219.7a.2.2,0,0,0-.16-.22h-14.5v-4.31h14.29a4.39,4.39,0,0,1,4.4,4.37v9.66a4.4,4.4,0,0,1-4.4,4.37H180.13Z"/><path d="M162.17,233.57h-3.89v-1l7.22-8.17-7.5-8.16v-1.07h4.17l6.81,7.19h3.39v-7.19h4.31v18.4h-4.31v-7.19H169Z"/><path d="M138.16,233.57v-4h12.65v-2.87h-9.49v-4.31h9.49v-2.88H138.16v-4.31h16.67v18.4Z"/><path d="M115.74,229.19v-3.58a4.41,4.41,0,0,1,4.4-4.4h.77l-5.46-4.91v-1.13H120l6.54,6h3.87v-6h4v18.4H120.11a4.4,4.4,0,0,1-4.37-4.38Zm14.44-3.67h-9.91c-.15,0-.22.06-.22.18v3.63a.18.18,0,0,0,.16.21.06.06,0,0,0,.06,0h9.91a.19.19,0,0,0,.22-.16V225.7C130.4,225.58,130.32,225.52,130.18,225.52Z"/><path d="M315.63,151.4h0s-12.54,65.81-14.34,75.24l65.64,39.63-76.07,9.62-17.41,74.67-32.66-69.37c-7.47.77-83.58,9.09-85.56,9.31l.69,6.51-32.15-5.64,30.3-11.71.63,5.91L244.91,274l26.35,56,14.05-60.24L346.67,262l-52.94-32,11.58-60.76-46.92,40.37-54.45-30.13c4.3,9.81,13.06,27.55,13.16,27.77l.44.87-1,1.58h-.92c-1,0-1.38-.65-1.86-1.48-.24-.41-23.44-44.08-23.44-44.08l67.26,37.23,58.12-50.14Z"/></svg>