<svg xmlns="http://www.w3.org/2000/svg" width="480.82" height="480.82" viewBox="0 0 480.82 480.82"><path d="M18.89,334A241.24,241.24,0,1,0,0,240.41,239.64,239.64,0,0,0,18.89,334Z"/><path d="M240.41,80.94a158.81,158.81,0,1,1-62,12.51A158.32,158.32,0,0,1,240.41,80.94Z" style="fill:#f8d800"/><path d="M240.41,82.15a157.6,157.6,0,1,1-61.58,12.41A157.23,157.23,0,0,1,240.41,82.15Z" style="fill:#ad9400"/><path d="M240.41,84.57a155.08,155.08,0,1,1-60.64,12.21A154.9,154.9,0,0,1,240.41,84.57Z" style="fill:#f8d800"/><path d="M240.41,85.78A153.89,153.89,0,1,1,180.24,97.9,153.49,153.49,0,0,1,240.41,85.78Z"/><path d="M240.51,90.82a149.07,149.07,0,1,1-58.29,11.74A148.73,148.73,0,0,1,240.51,90.82Z" style="fill:#f8d800"/><path d="M142.39,381.15a4.12,4.12,0,0,0-.43-6.34s-12.21-9.29-19.44-16.51S106,338.87,106,338.87a4.11,4.11,0,0,0-6.34-.43L50.39,387.72A243.91,243.91,0,0,0,93.1,430.44Z" style="fill:#f8d800"/><path d="M1.8,270.08a5.09,5.09,0,0,0,2.24.53H71.57a4.12,4.12,0,0,0,4.19-4.78s-2.07-15.19-2.07-25.42S75.76,215,75.76,215a4.12,4.12,0,0,0-4.19-4.79H4a5.09,5.09,0,0,0-2.24.53,245.43,245.43,0,0,0,0,59.34Z" style="fill:#f8d800"/><path d="M270.61,409.25a4.11,4.11,0,0,0-4.78-4.18s-15.19,2.06-25.42,2.06S215,405.07,215,405.07a4.11,4.11,0,0,0-4.79,4.18v68.5a5.06,5.06,0,0,0,.16,1.23,246.14,246.14,0,0,0,60.08,0,4.61,4.61,0,0,0,.16-1.23Z" style="fill:#f8d800"/><path d="M99.68,142.39A4.12,4.12,0,0,0,106,142s9.28-12.21,16.5-19.44S142,106,142,106a4.12,4.12,0,0,0,.43-6.34L93.1,50.39A244.31,244.31,0,0,0,50.39,93.1Z" style="fill:#f8d800"/><path d="M338.44,99.68a4.11,4.11,0,0,0,.43,6.34s12.21,9.28,19.43,16.5S374.81,142,374.81,142a4.12,4.12,0,0,0,6.34.43L430.44,93.1a243.91,243.91,0,0,0-42.72-42.71Z" style="fill:#f8d800"/><path d="M409.25,210.21a4.11,4.11,0,0,0-4.18,4.79s2.06,15.18,2.06,25.41-2.06,25.42-2.06,25.42a4.11,4.11,0,0,0,4.18,4.78s69.26-.08,69.73-.22a245.08,245.08,0,0,0,0-59.95C478.51,210.29,409.25,210.21,409.25,210.21Z" style="fill:#f8d800"/><path d="M381.15,338.44a4.11,4.11,0,0,0-6.34.43s-9.29,12.21-16.51,19.43-19.43,16.51-19.43,16.51a4.11,4.11,0,0,0-.43,6.34l49.28,49.29a243.51,243.51,0,0,0,42.72-42.72Z" style="fill:#f8d800"/><path d="M210.21,67.71v3.86A4.12,4.12,0,0,0,215,75.76s15.18-2.07,25.41-2.07,25.42,2.07,25.42,2.07a4.12,4.12,0,0,0,4.78-4.19V1.87a244.8,244.8,0,0,0-60.4,0Z" style="fill:#f8d800"/><path d="M240.47,13.83A23.9,23.9,0,0,0,242.82,20q1.71,3.18,7.45,8.41a42,42,0,0,1,6.2,6.62,10,10,0,0,1,1.73,5.67,8,8,0,0,1-8,8.08q-5.67,0-9.32-6.95,0,8.41,3.71,11.91c2.47,2.33,5.85,3.58,10.11,3.75l.26,1.35H226l.26-1.35q6.47,0,10.26-3.73t3.78-10.72c0-.27,0-.67,0-1.21q-3.3,7-9.55,6.95a8.09,8.09,0,0,1-8-8,10.08,10.08,0,0,1,1.92-6,27.1,27.1,0,0,1,5-5.16Q239.11,21.69,240.47,13.83Z"/><path d="M421,240.31a34.73,34.73,0,0,0,8.35-3.38,163,163,0,0,0,14.25-10.08,52.29,52.29,0,0,1,7.75-5.12,13.33,13.33,0,0,1,6-1.43,9.31,9.31,0,0,1,6.79,2.71,9,9,0,0,1,2.76,6.69q0,7.53-9.18,10.61a12.67,12.67,0,0,1,6.93,4.13,9.94,9.94,0,0,1,2.28,6.29,9.06,9.06,0,0,1-2.74,6.71,8.79,8.79,0,0,1-6.4,2.73,17.15,17.15,0,0,1-6.69-1.48q-3.48-1.49-9.58-6.35Q428.29,241.91,421,240.31Z"/><path d="M357.21,379.06l21.93-21.93.67,1.09a32.89,32.89,0,0,0-3.9,7.44,12.44,12.44,0,0,0,.35,6.82,16.61,16.61,0,0,0,4.38,7.41l1.11,1.06a15.6,15.6,0,0,1-.88-8.28,11.93,11.93,0,0,1,3.21-6.36,10.13,10.13,0,0,1,14.41.08,10.25,10.25,0,0,1,3.12,6.88,8.06,8.06,0,0,1-2.27,6.49,14.08,14.08,0,0,1-5.54,2.89c3,.69,5.15,1.69,6.44,3a9.89,9.89,0,0,1-.1,14.17,10.09,10.09,0,0,1-7.11,3.08,9.2,9.2,0,0,1-7-2.77,11.41,11.41,0,0,1-3-6.62q-1.37,4.11-2.82,5.56a8.24,8.24,0,0,1-6.65,2.46,10.37,10.37,0,0,1-6.8-3.13,10,10,0,0,1-3.11-7.31,9.61,9.61,0,0,1,2.88-7.1,12.76,12.76,0,0,1,5.6-3q3.58-1,9.11.59a23,23,0,0,0-7.72-5.24,12.49,12.49,0,0,0-6.9-.57,25.08,25.08,0,0,0-8.26,4Z"/><path d="M400.29,79.43A154.7,154.7,0,0,0,396,107.56q-2.7,0-12.39,1.32a124,124,0,0,0-15.78,3q2.31-7.51,4.43-28.06Q390.54,82.31,400.29,79.43Z"/><path d="M240.54,466.33a23.94,23.94,0,0,0-2.36-6.18q-1.69-3.18-7.44-8.41a42,42,0,0,1-6.2-6.62,9.87,9.87,0,0,1-1.73-5.67,8,8,0,0,1,8-8.08q5.67,0,9.33,6.95,0-8.42-3.71-11.91t-10.11-3.75l-.26-1.35h29l-.26,1.35c-4.32,0-7.73,1.25-10.26,3.73s-3.78,6.06-3.78,10.72c0,.27,0,.67,0,1.21q3.3-7,9.55-6.95a8.06,8.06,0,0,1,8,8,10.08,10.08,0,0,1-1.92,6,26.7,26.7,0,0,1-5,5.15Q241.9,458.48,240.54,466.33Z"/><path d="M59.31,240.33A34.42,34.42,0,0,0,51,243.72a161.78,161.78,0,0,0-14.24,10.07A52,52,0,0,1,29,258.91a13.3,13.3,0,0,1-6,1.43,9.29,9.29,0,0,1-6.78-2.71,9,9,0,0,1-2.76-6.69q0-7.53,9.18-10.61a12.63,12.63,0,0,1-6.93-4.13,9.9,9.9,0,0,1-2.29-6.29,9.08,9.08,0,0,1,2.74-6.71,8.79,8.79,0,0,1,6.4-2.73,17,17,0,0,1,6.7,1.49q3.46,1.47,9.58,6.34Q52,238.73,59.31,240.33Z"/><path d="M123.56,100.86l-21.93,21.93L101,121.7a33.48,33.48,0,0,0,3.91-7.45,12.5,12.5,0,0,0-.35-6.81,16.71,16.71,0,0,0-4.38-7.41L99,99a15.51,15.51,0,0,1,.88,8.28,11.85,11.85,0,0,1-3.2,6.36,10.13,10.13,0,0,1-14.41-.08,10.31,10.31,0,0,1-3.13-6.88,8.1,8.1,0,0,1,2.28-6.49A14,14,0,0,1,87,97.26c-3-.69-5.14-1.68-6.44-3a9.9,9.9,0,0,1,.11-14.17A10,10,0,0,1,87.74,77a9.17,9.17,0,0,1,7,2.77,11.44,11.44,0,0,1,3,6.62c.91-2.74,1.85-4.6,2.82-5.56a8.22,8.22,0,0,1,6.64-2.46,10.35,10.35,0,0,1,6.81,3.13,10.07,10.07,0,0,1,3.11,7.31,9.59,9.59,0,0,1-2.88,7.09,12.62,12.62,0,0,1-5.6,3q-3.58,1-9.12-.58a23.32,23.32,0,0,0,7.72,5.24,12.52,12.52,0,0,0,6.91.57,25.59,25.59,0,0,0,8.26-4Z"/><path d="M80.24,401a154.7,154.7,0,0,0,4.29-28.13q2.68,0,12.39-1.32a123.84,123.84,0,0,0,15.77-3q-2.3,7.51-4.42,28.06Q90,398.1,80.24,401Z"/><path d="M246.06,264.68v-2H251v2c0,.17.08.25.22.25h16.24a.23.23,0,0,0,.26-.19v-5.45a.23.23,0,0,0-.19-.26H251.11a5,5,0,0,1-5.05-5.05v-5.3a5,5,0,0,1,5.05-5h16.11a5,5,0,0,1,5.06,5v1.9h-4.59v-2a.23.23,0,0,0-.18-.25.08.08,0,0,0-.07,0H251.19c-.14,0-.22.08-.22.25v5.39c0,.17.08.26.22.26h16.05a5,5,0,0,1,5,5v5.47a5,5,0,0,1-5,4.92H251.12a5,5,0,0,1-5.06-4.92Z"/><path d="M243.44,264.68H221.8v-4.91h8.53V243.38h4.91v16.39h8.2Z"/><path d="M214.13,264.68H201.61a5,5,0,0,1-5-5v-16h4.92V249h12.78v-5.24h4.91v16A5,5,0,0,1,214.13,264.68Zm.14-11.14H201.49v6a.22.22,0,0,0,.18.26H214a.23.23,0,0,0,.25-.19v-6Z"/><path d="M171.33,259.61v-4.33a5.06,5.06,0,0,1,5-5h.88L171,244.67v-1.29h5.17l7.46,6.88h4.41v-6.88h4.59v21.3H176.32A5.07,5.07,0,0,1,171.33,259.61Zm16.14-4.43h-11.3c-.16,0-.25.07-.25.21v4.13a.22.22,0,0,0,.19.25h11.36a.23.23,0,0,0,.25-.19v-4.19C187.72,255.25,187.64,255.18,187.47,255.18Z"/><path d="M145.77,259.77v-1.31h4.92v1.06a.22.22,0,0,0,.18.25h11.36a.23.23,0,0,0,.25-.19.06.06,0,0,0,0-.06V256.7c0-.14-.08-.21-.25-.21H151.09a5,5,0,0,1-5-5v-2.87a5,5,0,0,1,5-4.95h11.32a5,5,0,0,1,5,4.95v1.27h-4.92v-1.36a.23.23,0,0,0-.19-.27.09.09,0,0,0-.07,0H150.94a.21.21,0,0,0-.25.18.06.06,0,0,0,0,.06v2.82c0,.14.08.21.25.21h11.42a5,5,0,0,1,5,4.87v3.33a5,5,0,0,1-5.07,4.91H150.84a5,5,0,0,1-5.07-4.91Z"/><path d="M273.59,237.48H247.37v-4.92h10.49v-21.3h4.91v21.3h10.82Z"/><path d="M223.44,227.25v-4.09a5.06,5.06,0,0,1,5-5H229l-6.23-5.59v-1.29H228l7.47,6.88h4.41v-6.88h4.92v21H228.43a5,5,0,0,1-5-5Zm16.14-4.19h-11.3c-.16,0-.25.07-.25.21v4.13a.22.22,0,0,0,.19.25h11.36a.22.22,0,0,0,.25-.18v-4.2C239.83,223.13,239.75,223.06,239.58,223.06Z"/><path d="M214.46,232.24H202a5,5,0,0,1-5-5v-16h4.91v5.25h12.78v-5.25h4.92v16a5,5,0,0,1-5,5Zm.13-10.82H201.81v6a.23.23,0,0,0,.19.25h12.34a.22.22,0,0,0,.25-.19.06.06,0,0,0,0-.06Z"/><path d="M171.66,227.65h16.46a.23.23,0,0,0,.26-.19v-11a.23.23,0,0,0-.19-.25.08.08,0,0,0-.07,0H171.66v-4.92H188a5,5,0,0,1,5,5v11a5,5,0,0,1-5,5h-16.3Z"/><path d="M151.19,232.24h-4.44V231.1l8.23-9.31-8.55-9.31v-1.22h4.75l7.77,8.2h3.86v-8.2h4.92v21h-4.92V224H159Z"/><path d="M123.81,232.24v-4.59h14.42v-3.28H127.42v-4.91h10.81v-3.28H123.81v-4.92h19v21Z"/><path d="M98.25,227.25v-4.09a5.06,5.06,0,0,1,5-5h.88l-6.23-5.59v-1.29h5.17l7.47,6.88H115v-6.88h4.59v21H103.24a5,5,0,0,1-5-5Zm16.46-4.19H103.42c-.17,0-.25.07-.25.21v4.13a.22.22,0,0,0,.18.25h11.36a.22.22,0,0,0,.25-.18.08.08,0,0,0,0-.07v-4.13C115,223.13,114.88,223.06,114.71,223.06Z"/><path d="M326.14,138.56h0l-16.35,85.78,74.83,45.18-86.72,11c-2.39,10.26-19.85,85.12-19.85,85.12l-37.23-79.08c-8.52.88-95.29,10.37-97.55,10.61l.79,7.43-36.65-6.44L142,284.79l.71,6.73,102.85-13.21,30.05,63.83,16-68.67,69.95-8.84-60.35-36.45,13.2-69.27-53.49,46-62.07-34.34c4.89,11.17,14.88,31.41,15,31.65l.5,1-1.18,1.8h-1c-1.14,0-1.58-.74-2.13-1.68-.27-.46-26.72-50.25-26.72-50.25l76.68,42.44,66.27-57.16Z"/></svg>