<svg xmlns="http://www.w3.org/2000/svg" width="2400" height="100.62" viewBox="0 0 2400 100.62"><polygon points="1200 0.1 0 0.1 0 100.1 1200 100.1 2400 100.1 2400 0.1 1200 0.1"/><path d="M397.25,0H301.56c-.07,27.94-.12,69-.15,100h96C397.37,69,397.32,27.94,397.25,0Z" style="fill:#f8d800"/><path d="M696.23,0H600.54c-.07,27.94-.12,69-.15,100h96C696.36,69,696.3,27.94,696.23,0Z" style="fill:#f8d800"/><path d="M995.22,0H899.53c-.07,27.94-.13,69-.16,100h96C995.34,69,995.29,27.94,995.22,0Z" style="fill:#f8d800"/><path d="M97.56,0H1.6c-.07,27.94-.13,69-.16,100H97.71C97.68,69,97.63,27.94,97.56,0Z" style="fill:#f8d800"/><path d="M1295.58,0h-95.69c-.07,27.94-.12,69-.16,100h96C1295.7,69,1295.65,27.94,1295.58,0Z" style="fill:#f8d800"/><path d="M1595.94.62h-95.69c-.07,27.94-.12,69-.15,100h96C1596.06,69.65,1596,28.56,1595.94.62Z" style="fill:#f8d800"/><path d="M1895.92.62h-95.68c-.08,27.94-.13,69-.16,100h96C1896.05,69.65,1896,28.56,1895.92.62Z" style="fill:#f8d800"/><path d="M2196.91,0h-95.69c-.07,27.94-.13,69-.16,100h96C2197,69,2197,27.94,2196.91,0Z" style="fill:#f8d800"/></svg>