<svg xmlns="http://www.w3.org/2000/svg" width="333.19" height="112.51" viewBox="0 0 333.19 112.51"><path d="M72.85,55.12V57H68.33V55.12c0-.16-.07-.24-.2-.24h-15a.21.21,0,0,0-.24.24v5a.21.21,0,0,0,.24.24h15a4.57,4.57,0,0,1,3.33,1.38,4.52,4.52,0,0,1,1.39,3.35v5a4.71,4.71,0,0,1-4.72,4.72h-15a4.69,4.69,0,0,1-4.73-4.72V68.28h4.49v1.87a.21.21,0,0,0,.24.24h15c.13,0,.2-.08.2-.24v-5c0-.16-.07-.24-.2-.24h-15a4.71,4.71,0,0,1-4.73-4.73v-5a4.71,4.71,0,0,1,4.73-4.73h15a4.73,4.73,0,0,1,4.72,4.73Z" style="fill:#fff"/><path d="M75.33,55.15H95.7v4.46h-8V74.87H83.25V59.61H75.33Z" style="fill:#fff"/><path d="M103,55.15H114.6a4.69,4.69,0,0,1,4.69,4.7v15h-4.45V69.94h-12.1v4.93H98.28v-15a4.71,4.71,0,0,1,4.69-4.7Zm-.23,10.34h12.1V59.85a.21.21,0,0,0-.24-.24H103a.21.21,0,0,0-.23.24Z" style="fill:#fff"/><path d="M143,59.85v4a4.57,4.57,0,0,1-1.37,3.3,4.51,4.51,0,0,1-3.32,1.4h-.78l5.81,5.16v1.19H138.5l-7-6.35h-4.11v6.35H123V55.15H138.3a4.51,4.51,0,0,1,3.32,1.4A4.57,4.57,0,0,1,143,59.85ZM127.66,64H138.3q.24,0,.24-.21v-4a.21.21,0,0,0-.24-.24H127.66a.21.21,0,0,0-.24.24v4Q127.42,64,127.66,64Z" style="fill:#fff"/><path d="M166.62,59.85V61h-4.45V59.85a.21.21,0,0,0-.24-.24H151.29a.21.21,0,0,0-.24.24v2.72c0,.13.08.2.24.2h10.64a4.69,4.69,0,0,1,4.69,4.69v2.72a4.68,4.68,0,0,1-4.69,4.69H151.29a4.68,4.68,0,0,1-4.69-4.69V69h4.45v1.19a.21.21,0,0,0,.24.24h10.64a.21.21,0,0,0,.24-.24V67.46c0-.13-.08-.2-.24-.2H151.29a4.69,4.69,0,0,1-4.69-4.69V59.85a4.69,4.69,0,0,1,4.69-4.7h10.64a4.69,4.69,0,0,1,4.69,4.7Z" style="fill:#fff"/><path d="M169,50.39h24.48v4.49h-10v20H179v-20H169Z" style="fill:#fff"/><path d="M216,59.85v4a4.75,4.75,0,0,1-4.7,4.7h-.78l5.82,5.16v1.19h-4.83l-7-6.35h-4.12v6.35h-4.45V55.15h15.33a4.75,4.75,0,0,1,4.7,4.7ZM200.62,64h10.64q.24,0,.24-.21v-4a.21.21,0,0,0-.24-.24H200.62a.21.21,0,0,0-.24.24v4Q200.38,64,200.62,64Z" style="fill:#fff"/><path d="M224.39,55.15H236a4.71,4.71,0,0,1,4.69,4.7v15h-4.46V69.94h-12.1v4.93H219.7v-15a4.69,4.69,0,0,1,4.69-4.7Zm-.24,10.34h12.1V59.85a.21.21,0,0,0-.23-.24H224.39a.21.21,0,0,0-.24.24Z" style="fill:#fff"/><path d="M264.24,59.57H249a.21.21,0,0,0-.24.24V70.18a.21.21,0,0,0,.24.24h15.27v4.45H249a4.68,4.68,0,0,1-4.69-4.69V59.81A4.69,4.69,0,0,1,249,55.12h15.27Z" style="fill:#fff"/><path d="M282.94,55.15h4.79v1.16L279.84,65l7.89,8.71v1.15h-4.79l-7-7.61h-3.5v7.61h-4.46V55.15h4.46v7.62h3.5Z" style="fill:#fff"/><path d="M309.22,55.12v4.45H295.58v3.2h10.17v4.49H295.58v3.16h13.64v4.45H291.13V55.12Z" style="fill:#fff"/><path d="M332.85,59.85v4a4.75,4.75,0,0,1-4.7,4.7h-.78l5.82,5.16v1.19h-4.83l-7-6.35h-4.12v6.35h-4.45V55.15h15.33a4.75,4.75,0,0,1,4.7,4.7ZM317.51,64h10.64q.24,0,.24-.21v-4a.21.21,0,0,0-.24-.24H317.51a.21.21,0,0,0-.24.24v4Q317.27,64,317.51,64Z" style="fill:#fff"/><path d="M29,112.42h0S36,75.27,37.05,70L0,47.58l42.94-5.43C44.12,37.07,52.76,0,52.76,0L71.2,39.16c4.22-.44,47.18-5.14,48.3-5.26l-.39-3.67,18.14,3.18L120.15,40l-.35-3.34L68.87,43.22,54,11.62l-7.92,34L11.44,50l29.88,18-6.54,34.3L61.27,79.56,92,96.56C89.57,91,84.63,81,84.57,80.89l-.24-.49.58-.89h.52c.56,0,.78.37,1,.83.14.23,13.23,24.88,13.23,24.88l-38-21-32.81,28.3Z" style="fill:#fff"/></svg>